<svg xmlns="http://www.w3.org/2000/svg" viewBox="0 0 500 500"><g id="freepik--background-simple--inject-35"><path d="M467,183.65a225.58,225.58,0,0,0-9.61-22.59C425.69,96.58,366.69,52.86,294.06,41.37q-4.69-.75-9.42-1.31c-59.28-7.13-142.27,1.76-176.11,56.56-17.57,28.46-10.36,64.35-29,92C55.4,224.51,24.38,242.44,18.64,298.45c-4.23,41.21-2.26,85.75,26.88,118.62,34.34,38.75,93.27,52.09,143.61,44.65,48.86-7.21,92.6-31.34,135.33-54,40.56-21.51,87-37.13,119.82-70C485.72,296.19,485.69,235.48,467,183.65Z" style="fill:#69ABF5"></path><path d="M467,183.65a225.58,225.58,0,0,0-9.61-22.59C425.69,96.58,366.69,52.86,294.06,41.37q-4.69-.75-9.42-1.31c-59.28-7.13-142.27,1.76-176.11,56.56-17.57,28.46-10.36,64.35-29,92C55.4,224.51,24.38,242.44,18.64,298.45c-4.23,41.21-2.26,85.75,26.88,118.62,34.34,38.75,93.27,52.09,143.61,44.65,48.86-7.21,92.6-31.34,135.33-54,40.56-21.51,87-37.13,119.82-70C485.72,296.19,485.69,235.48,467,183.65Z" style="fill:#fff;opacity:0.7000000000000001"></path></g><g id="freepik--Device--inject-35"><rect x="116.14" y="75" width="189.09" height="369" rx="14.52" style="fill:#263238"></rect><path d="M235.16,75H130.66a14.52,14.52,0,0,0-14.52,14.52v289Z" style="fill:#fff;opacity:0.30000000000000004"></path><rect x="124.55" y="100.06" width="172.27" height="322.04" style="fill:#fff;stroke:#263238;stroke-linecap:round;stroke-linejoin:round"></rect><rect x="276.67" y="103.4" width="14.28" height="7.83" style="fill:none;stroke:#263238;stroke-linecap:round;stroke-linejoin:round;stroke-width:0.821067px"></rect><rect x="276.67" y="103.4" width="11.14" height="7.83" style="fill:#263238;stroke:#263238;stroke-linecap:round;stroke-linejoin:round;stroke-width:0.725073px"></rect><rect x="290.93" y="105.59" width="2.01" height="3.45" style="fill:#263238;stroke:#263238;stroke-linecap:round;stroke-linejoin:round;stroke-width:0.725073px"></rect><rect x="128.43" y="105.83" width="2.62" height="4.49" style="fill:#263238;stroke:#263238;stroke-linecap:round;stroke-linejoin:round;stroke-width:0.8830859999999999px"></rect><rect x="132.54" y="104.25" width="2.62" height="6.07" style="fill:#263238;stroke:#263238;stroke-linecap:round;stroke-linejoin:round;stroke-width:0.8830859999999999px"></rect><rect x="136.66" y="102.39" width="2.62" height="7.93" style="fill:#263238;stroke:#263238;stroke-linecap:round;stroke-linejoin:round;stroke-width:0.8830859999999999px"></rect><rect x="127.33" y="115.59" width="165.42" height="12.44" style="fill:#69ABF5"></rect></g><g id="freepik--Chats--inject-35"><path d="M276,189.61H143.14a8.53,8.53,0,0,1-8.53-8.53V135.25l10.09,10.68H276a8.53,8.53,0,0,1,8.53,8.53v26.62A8.53,8.53,0,0,1,276,189.61Z" style="fill:#69ABF5"></path><path d="M168.91,167.77a12,12,0,1,0-12,12A12,12,0,0,0,168.91,167.77Z" style="fill:#fff"></path><line x1="175.04" y1="155.1" x2="199.89" y2="155.1" style="fill:none;stroke:#263238;stroke-linecap:round;stroke-linejoin:round;stroke-width:2px"></line><line x1="175.04" y1="163.76" x2="272.09" y2="163.76" style="fill:none;stroke:#263238;stroke-linecap:round;stroke-linejoin:round"></line><line x1="175.04" y1="170.91" x2="272.09" y2="170.91" style="fill:none;stroke:#263238;stroke-linecap:round;stroke-linejoin:round"></line><line x1="175.04" y1="178.82" x2="272.09" y2="178.82" style="fill:none;stroke:#263238;stroke-linecap:round;stroke-linejoin:round"></line><path d="M276,308.39H143.14a8.53,8.53,0,0,1-8.53-8.53V254l10.09,10.69H276a8.53,8.53,0,0,1,8.53,8.53v26.62A8.53,8.53,0,0,1,276,308.39Z" style="fill:#69ABF5"></path><path d="M168.91,286.55a12,12,0,1,0-12,12A12,12,0,0,0,168.91,286.55Z" style="fill:#fff"></path><line x1="175.04" y1="273.88" x2="199.89" y2="273.88" style="fill:none;stroke:#263238;stroke-linecap:round;stroke-linejoin:round;stroke-width:2px"></line><line x1="175.04" y1="282.54" x2="272.09" y2="282.54" style="fill:none;stroke:#263238;stroke-linecap:round;stroke-linejoin:round"></line><line x1="175.04" y1="289.69" x2="272.09" y2="289.69" style="fill:none;stroke:#263238;stroke-linecap:round;stroke-linejoin:round"></line><line x1="175.04" y1="297.6" x2="272.09" y2="297.6" style="fill:none;stroke:#263238;stroke-linecap:round;stroke-linejoin:round"></line><path d="M146.13,380H279a8.53,8.53,0,0,0,8.53-8.53V325.64l-10.09,10.69H146.13a8.53,8.53,0,0,0-8.53,8.53v26.61A8.53,8.53,0,0,0,146.13,380Z" style="fill:gray"></path><circle cx="159.9" cy="358.16" r="11.99" transform="translate(-206.42 217.97) rotate(-45)" style="fill:#fff"></circle><line x1="178.03" y1="345.49" x2="223.86" y2="345.49" style="fill:none;stroke:#263238;stroke-linecap:round;stroke-linejoin:round;stroke-width:2px"></line><line x1="178.03" y1="354.15" x2="275.08" y2="354.15" style="fill:none;stroke:#263238;stroke-linecap:round;stroke-linejoin:round"></line><line x1="178.03" y1="361.31" x2="275.08" y2="361.31" style="fill:none;stroke:#263238;stroke-linecap:round;stroke-linejoin:round"></line><line x1="178.03" y1="369.22" x2="275.08" y2="369.22" style="fill:none;stroke:#263238;stroke-linecap:round;stroke-linejoin:round"></line></g><g id="freepik--Character--inject-35"><path d="M205.11,439.4a6.43,6.43,0,1,0-6.43,6.43A6.42,6.42,0,0,0,205.11,439.4Z" style="fill:none;stroke:#fff;stroke-linecap:round;stroke-linejoin:round"></path><path d="M369.54,423.29l-2.27,7.84s-9.54,6.12-11.07,10.6.49,7.48,4.1,7.38,9.12-1.38,11.25-4.5,3.7-6.21,6.14-8.23,5.78-1.84,6.74-7.14-3.26-6.84-6.61-7.3S369.54,423.29,369.54,423.29Z" style="fill:#fff;stroke:#263238;stroke-linecap:round;stroke-linejoin:round"></path><path d="M343.41,250.83a50.55,50.55,0,0,0-3.9,20.09s-3.13,16.47.83,37.73,12,38.52,12,40.46-.75,21.68,1.69,29.11,14.82,41.21,14.82,41.21-.7,4.74.72,5.81,5.33,1.78,6.15,1.48a25.1,25.1,0,0,1,3-.64l1.52,4.39a16.49,16.49,0,0,0,4.17.16,11,11,0,0,0,6-2.4s6-24.05,9.65-40.26,5.46-40.7,5.46-40.7,7.95-31.89,9-51.63-3-26.84-3-26.84a59.44,59.44,0,0,0-3.51-15.73c-3-7.68-8.78-5.85-30.25-8.82s-27.22-.59-29.14.3S343.41,250.83,343.41,250.83Z" style="fill:#263238;stroke:#263238;stroke-linecap:round;stroke-linejoin:round"></path><path d="M378.72,413.89l.39,4.4" style="fill:none;stroke:gray;stroke-linecap:round;stroke-linejoin:round"></path><path d="M375.47,294.85s-2.66,37.06-.72,45.17c1.75,7.34,2.67,11.41,2.67,11.41s-3.28,20.64-1.86,31.43c.86,6.45,2,17.87,2.7,26" style="fill:none;stroke:gray;stroke-linecap:round;stroke-linejoin:round"></path><path d="M393.2,275.83a26.15,26.15,0,0,1,5-1.92" style="fill:none;stroke:gray;stroke-linecap:round;stroke-linejoin:round"></path><path d="M377,290.08a55.44,55.44,0,0,1,12.08-11.79" style="fill:none;stroke:gray;stroke-linecap:round;stroke-linejoin:round"></path><path d="M358.35,281.88a36.29,36.29,0,0,0,11.5,9.08" style="fill:none;stroke:gray;stroke-linecap:round;stroke-linejoin:round"></path><path d="M386.89,277a49,49,0,0,1,12.6-5.64" style="fill:none;stroke:gray;stroke-linecap:round;stroke-linejoin:round"></path><path d="M375.89,159.85s-.32,7.2-1.59,9.37-14.6,1.5-19.88,3.25-8.61,6.11-10.64,9.37-21.23,39-20.57,43.22,1,6.1,7.09,5.65,21-17.93,21-17.93l.47,15.7-8.4,22.35s11.1,6.34,32,9.45S409,254.5,409,254.5l-3.28-20.95,4-16.63s8.79,18.12,11.58,22.56,9.44,4,12.75-1.17,2.4-8.86-.73-15.69-9.6-27.69-12.15-32.94-3.74-9.48-11.31-13-19.31-4.76-19.31-4.76l.19-11.46Z" style="fill:#69ABF5;stroke:#263238;stroke-linecap:round;stroke-linejoin:round"></path><path d="M390.82,160.48l-14.93-.63s-.32,7.2-1.59,9.37c-.74,1.27-5.61,1.57-10.58,1.94a55.79,55.79,0,0,0,15.56,29.49s16.18-12.42,23.3-26.49a91.26,91.26,0,0,0-11.95-2.22Z" style="fill:#263238;stroke:#263238;stroke-linecap:round;stroke-linejoin:round"></path><path d="M348.86,212.66s-1-7.63,3.05-19.84" style="fill:none;stroke:#263238;stroke-linecap:round;stroke-linejoin:round"></path><path d="M390.82,160.48l-14.93-.63s-.32,7.2-1.59,9.37c-.41.7-2.08,1.1-4.33,1.39-.08,2.5.06,8.26,2.62,13a48.33,48.33,0,0,0,7.23,10.18s7.79-6.89,12.09-14.47a44.34,44.34,0,0,0,3.17-6.79c-2.64-.44-4.45-.63-4.45-.63Z" style="fill:#fff;stroke:#263238;stroke-linecap:round;stroke-linejoin:round"></path><path d="M375.48,164.45a20.22,20.22,0,0,0,8.62,5.22,21.94,21.94,0,0,0,6.55.9l.17-10.09-14.93-.63S375.79,162.09,375.48,164.45Z" style="fill:#263238;stroke:#263238;stroke-linecap:round;stroke-linejoin:round"></path><path d="M414.78,126.23s-4-26.71-24.79-29-39.47,11.26-41.8,20.27S356.75,134,356,137.19s-9.44,2.87-11.26,9.56,6.93,10.18,6.93,10.18-15.86-.11-10.18,6.93,14.23,3.33,16.47,1a5.5,5.5,0,0,0,1-5.51s7.33,4.11,14.45.73,8.08-9.47,8.08-9.47,8.85,6.66,22.79.2S416.62,130.21,414.78,126.23Z" style="fill:#263238;stroke:#263238;stroke-linecap:round;stroke-linejoin:round"></path><path d="M406.39,135a10.52,10.52,0,0,1-1.81,7.92c-2.73,3.45-5.1,1.42-5.1,1.42l.58-9.8Z" style="fill:#fff;stroke:#263238;stroke-linecap:round;stroke-linejoin:round"></path><path d="M363.13,135.25a10.46,10.46,0,0,0,1.1,8c2.42,3.68,5,1.87,5,1.87l.29-9.81Z" style="fill:#fff;stroke:#263238;stroke-linecap:round;stroke-linejoin:round"></path><path d="M367.86,129.34s.16,15.28.9,20.74,4.55,17.46,14.91,16.87c12.09-.7,14-13.4,15.9-18.35s2.6-19.69,2.6-19.69.11-15.87-13.81-18.34S369.8,116.88,367.86,129.34Z" style="fill:#fff;stroke:#263238;stroke-linecap:round;stroke-linejoin:round"></path><path d="M378.66,143.73c0,1-.52,1.89-1.24,1.91s-1.32-.8-1.35-1.83.53-1.89,1.24-1.91S378.63,142.7,378.66,143.73Z" style="fill:#263238"></path><path d="M391.37,144.22c0,1-.53,1.89-1.24,1.91s-1.32-.8-1.36-1.83.53-1.89,1.25-1.91S391.34,143.19,391.37,144.22Z" style="fill:#263238"></path><path d="M380.63,151.75s1.79,2,5.21.71" style="fill:none;stroke:#263238;stroke-linecap:round;stroke-linejoin:round"></path><path d="M377,154.74s3,3.37,6.72,3a8.24,8.24,0,0,0,5.41-2.47" style="fill:none;stroke:#263238;stroke-linecap:round;stroke-linejoin:round"></path><path d="M358.28,137.12s3.89,4.79,14.84,4.47a35.35,35.35,0,0,0,18.57-6s-6.47,5.67-1.28,5.52,9.18-1.71,14.75-8.51,4.7-16.58,1.09-21.66-19-7.52-33.49-1.33S355.52,131.43,358.28,137.12Z" style="fill:#263238;stroke:#263238;stroke-linecap:round;stroke-linejoin:round"></path><path d="M362.55,133.17a20.68,20.68,0,0,1-2.47-1.93" style="fill:none;stroke:gray;stroke-linecap:round;stroke-linejoin:round"></path><path d="M404.72,123.51s-7.38,9.14-9.49,9.49-1.76-6.33-1.76-6.33a87.06,87.06,0,0,1-16.87,9.14,13.91,13.91,0,0,1-10.69-.74" style="fill:none;stroke:gray;stroke-linecap:round;stroke-linejoin:round"></path><path d="M380.3,430.47s-.3,8.9-.43,13.9,1.63,8.28,5,8.18,11.44,1.89,13.26-2.33-4.85-14-5.8-17.88-1.57-6.06-1.57-6.06l-10.49,2Z" style="fill:#fff;stroke:#263238;stroke-linecap:round;stroke-linejoin:round"></path><path d="M279.27,202.43s-4.38-3.35-7.47-3.35-4.12-2.32-5.66-2.83-1.81,3.6,0,4.38,4.12,1.8,4.12,1.8l1.8,3.35,9.53,1Z" style="fill:#fff;stroke:#263238;stroke-linecap:round;stroke-linejoin:round"></path><path d="M267.42,243.77l128.45,11a8.28,8.28,0,0,0,8.95-7.54l1.7-20,.49-5.74,1.59-18.58L398,212.39,271,201.55a8.29,8.29,0,0,0-8.95,7.55l-2.19,25.72A8.28,8.28,0,0,0,267.42,243.77Z" style="fill:gray"></path><circle cx="282.54" cy="223.79" r="11.63" transform="translate(47.79 497.3) rotate(-87.74)" style="fill:#fff"></circle><line x1="301.1" y1="213.04" x2="345.4" y2="216.82" style="fill:none;stroke:#263238;stroke-linecap:round;stroke-linejoin:round;stroke-width:2px"></line><line x1="300.38" y1="221.41" x2="394.19" y2="229.42" style="fill:none;stroke:#263238;stroke-linecap:round;stroke-linejoin:round"></line><line x1="299.79" y1="228.33" x2="393.6" y2="236.34" style="fill:none;stroke:#263238;stroke-linecap:round;stroke-linejoin:round"></line><line x1="299.14" y1="235.97" x2="392.95" y2="243.98" style="fill:none;stroke:#263238;stroke-linecap:round;stroke-linejoin:round"></line><path d="M411,226.58s5.26-1.62,10.73-2.84,12.56,2.44,14.18,6.28.81,6.89-1.21,9.93-5.07,4.46-9.73,3.44c-3.16-.68-6.48-4-7.49-6.07l-1-2s-.81-1.21-1.62-1.21" style="fill:#69ABF5;stroke:#263238;stroke-linecap:round;stroke-linejoin:round"></path><path d="M409,224.55s-4.64-5.58-6.89-4.94c-1.71.49-8.64,2-11.88,2.75a1.29,1.29,0,0,0-.86,1.89h0a1.29,1.29,0,0,0,1.19.68l9.73-.38,1.21,2-12.09,2a1.42,1.42,0,0,0-1.18,1.5h0a1.42,1.42,0,0,0,1.45,1.31l12.52-.92-10.84,4a1.39,1.39,0,0,0-.45,2.43h0a1.37,1.37,0,0,0,1.05.27l12.26-2.58-5.35,4.29h0c.13,1,.88,1.08,1.94.71L411,235.9a15.34,15.34,0,0,0,5.26,1c2.84,0,3.45-3.44,1.22-6.68S409,224.55,409,224.55Z" style="fill:#fff;stroke:#263238;stroke-linecap:round;stroke-linejoin:round"></path><path d="M401.45,226.58a26.32,26.32,0,0,1,4.42-.45" style="fill:none;stroke:#263238;stroke-linecap:round;stroke-linejoin:round"></path><line x1="402.15" y1="230.49" x2="405.77" y2="229.64" style="fill:none;stroke:#263238;stroke-linecap:round;stroke-linejoin:round"></line><line x1="404.17" y1="234.65" x2="407.36" y2="233.47" style="fill:none;stroke:#263238;stroke-linecap:round;stroke-linejoin:round"></line><path d="M262,199.3h0a1.57,1.57,0,0,0-.42,2c1,1.85,3.11,5.17,4.78,5,2.32-.26.52-2.57,0-3.6a32.2,32.2,0,0,0-2.11-3.09A1.59,1.59,0,0,0,262,199.3Z" style="fill:#fff;stroke:#263238;stroke-linecap:round;stroke-linejoin:round"></path><path d="M260.23,203.16h0a1.58,1.58,0,0,0-.42,2c1,1.85,3.1,5.16,4.78,5,2.32-.26.51-2.58,0-3.61a31.05,31.05,0,0,0-2.11-3.08A1.58,1.58,0,0,0,260.23,203.16Z" style="fill:#fff;stroke:#263238;stroke-linecap:round;stroke-linejoin:round"></path><path d="M257.28,210.31h0a1.27,1.27,0,0,0-.34,1.63c.83,1.51,2.52,4.2,3.88,4.05,1.88-.21.42-2.09,0-2.93a25.77,25.77,0,0,0-1.72-2.5A1.28,1.28,0,0,0,257.28,210.31Z" style="fill:#fff;stroke:#263238;stroke-linecap:round;stroke-linejoin:round"></path><path d="M257.91,206h0a1.58,1.58,0,0,0-.42,2c1,1.85,3.11,5.16,4.78,5,2.32-.26.52-2.58,0-3.61a32.28,32.28,0,0,0-2.11-3.08A1.59,1.59,0,0,0,257.91,206Z" style="fill:#fff;stroke:#263238;stroke-linecap:round;stroke-linejoin:round"></path></g></svg>